<svg width="22" height="17" viewBox="0 0 22 17" fill="none" xmlns="http://www.w3.org/2000/svg">
<path d="M20.6029 7.32751C20.8585 7.64907 21 8.06684 21 8.50002C21 8.93319 20.8585 9.35096 20.6029 9.67252C18.9845 11.65 15.3005 15.5 11 15.5C6.69952 15.5 3.01559 11.65 1.39712 9.67252C1.1415 9.35096 1 8.93319 1 8.50002C1 8.06684 1.1415 7.64907 1.39712 7.32751C3.01559 5.35 6.69952 1.5 11 1.5C15.3005 1.5 18.9845 5.35 20.6029 7.32751Z" stroke="#FFD11A" stroke-width="1.5" stroke-linecap="round" stroke-linejoin="round"/>
<path d="M11.0005 11.6109C12.7031 11.6109 14.0833 10.2181 14.0833 8.49987C14.0833 6.78167 12.7031 5.38879 11.0005 5.38879C9.29793 5.38879 7.91772 6.78167 7.91772 8.49987C7.91772 10.2181 9.29793 11.6109 11.0005 11.6109Z" stroke="#FFD11A" stroke-width="1.5" stroke-linecap="round" stroke-linejoin="round"/>
</svg>
