<svg width="28" height="28" viewBox="0 0 28 28" fill="none" xmlns="http://www.w3.org/2000/svg">
<g filter="url(#filter0_d_126_1663)">
<path d="M12.2749 1.9429C13.0476 0.62493 14.9529 0.624932 15.7256 1.9429L17.4514 4.88664C17.7334 5.36761 18.2034 5.70904 18.7479 5.8286L22.0809 6.5603C23.5731 6.8879 24.1619 8.69996 23.1472 9.8421L20.8809 12.3931C20.5106 12.8099 20.3311 13.3624 20.3857 13.9173L20.7197 17.3132C20.8693 18.8337 19.3278 19.9536 17.928 19.3415L14.8015 17.9744C14.2907 17.751 13.7098 17.751 13.199 17.9744L10.0724 19.3415C8.67264 19.9536 7.13122 18.8336 7.28078 17.3132L7.61483 13.9173C7.66941 13.3624 7.48991 12.8099 7.11962 12.3931L4.85327 9.8421C3.83858 8.69996 4.42736 6.8879 5.91959 6.5603L9.25257 5.8286C9.79713 5.70904 10.2671 5.36761 10.5491 4.88664L12.2749 1.9429Z" fill="#98989A"/>
</g>
<defs>
<filter id="filter0_d_126_1663" x="0.346924" y="0.95459" width="27.3066" height="26.5571" filterUnits="userSpaceOnUse" color-interpolation-filters="sRGB">
<feFlood flood-opacity="0" result="BackgroundImageFix"/>
<feColorMatrix in="SourceAlpha" type="matrix" values="0 0 0 0 0 0 0 0 0 0 0 0 0 0 0 0 0 0 127 0" result="hardAlpha"/>
<feOffset dy="4"/>
<feGaussianBlur stdDeviation="2"/>
<feComposite in2="hardAlpha" operator="out"/>
<feColorMatrix type="matrix" values="0 0 0 0 0 0 0 0 0 0 0 0 0 0 0 0 0 0 0.25 0"/>
<feBlend mode="normal" in2="BackgroundImageFix" result="effect1_dropShadow_126_1663"/>
<feBlend mode="normal" in="SourceGraphic" in2="effect1_dropShadow_126_1663" result="shape"/>
</filter>
</defs>
</svg>
